<svg width="560px" height="107.2px" xmlns="http://www.w3.org/2000/svg" viewBox="-30.01878662109374 21.39999694824219 560.0375732421875 107.20000610351562" style="background: rgba(0, 0, 0, 0)" preserveAspectRatio="xMidYMid"><defs><linearGradient id="editing-shiny-gradient" x1="0.4304134495199672" x2="0.5695865504800328" y1="0.0048659656292148745" y2="0.9951340343707851" gradientUnits="objectBoundingBox"><stop offset="0" stop-color="#ffb200"></stop><stop offset="0.5" stop-color="#e10057"></stop><stop offset="1" stop-color="#5a1a80"></stop></linearGradient><linearGradient id="editing-shiny-gradient2" x1="0" x2="0" y1="0" y2="1"><stop offset="0.2" stop-color="#ffffff" stop-opacity="0.8"></stop><stop offset="0.8" stop-color="#ffffff" stop-opacity="0"></stop></linearGradient><filter id="editing-shiny2" x="-100%" y="-100%" width="300%" height="300%"><feMorphology operator="erode" radius="2"></feMorphology></filter><filter id="editing-shiny" x="-100%" y="-100%" width="300%" height="300%"><feFlood flood-color="#fff" result="flood"></feFlood><feConvolveMatrix in="SourceGraphic" result="conv" order="8,8" divisor="1" kernelMatrix="0 0 0 0 0 0 0 0 0 0 0 1 1 0 0 0 0 0 0 1 1 0 0 0 0 0 1 0 0 1 0 0 0 0 1 0 0 1 0 0 0 1 0 0 0 0 1 0 0 1 1 0 0 1 1 0 0 0 0 1 1 0 0 0 "></feConvolveMatrix><feOffset dx="0" dy="4" in="conv" result="offset"></feOffset><feComposite operator="in" in="flood" in2="offset" result="comp"></feComposite><feGaussianBlur in="offset" stdDeviation="3" result="shadow"></feGaussianBlur><feColorMatrix in="shadow" type="matrix" values="0.7 0 0 0 0  0 0.7 0 0 0  0 0 0.7 0 0  0 0 0 0.3 0" result="dark-shadow"></feColorMatrix><feOffset dx="0" dy="4" in="dark-shadow" result="offset-shadow"></feOffset><feOffset dx="0" dy="2" in="conv" result="offset-2"></feOffset><feComposite operator="out" in="offset" in2="offset-2" result="edge-diff"></feComposite><feGaussianBlur in="edge-diff" stdDeviation="1" result="edge-blur"></feGaussianBlur><feColorMatrix in="edge-blur" result="edge-shadow" type="matrix" values="0 0 0 0 0  0 0 0 0 0  0 0 0 0 0  0 0 0 0.5 0"></feColorMatrix><feComposite operator="in" in="edge-shadow" in2="offset" result="edge-shadow-in"></feComposite><feOffset dx="0" dy="1" in="edge-shadow-in" result="edge-shadow-final"></feOffset><feMerge result="out"><feMergeNode in="offset-shadow"></feMergeNode><feMergeNode in="comp"></feMergeNode><feMergeNode in="edge-shadow-final"></feMergeNode><feMergeNode in="SourceGraphic"></feMergeNode></feMerge></filter></defs><g filter="url(#editing-shiny)"><g transform="translate(43.7,101.5)"><path d="M 14.7 -3.1 L 14.7 -3.1 L 14.7 -3.1 Q 12.9 1.1 7.2 1.1 L 7.2 1.1 L 7.2 1.1 Q 4.3 1.1 2.5 -0.8 L 2.5 -0.8 L 2.5 -0.8 Q 1 -2.6 1 -4.4 L 1 -4.4 L 1 -4.4 Q 1 -9 3.1 -18 L 3.1 -18 L 5.2 -29.1 L 16.8 -30.2 L 13.3 -12.2 L 13.3 -12.2 Q 12.3 -8 12.3 -6.5 L 12.3 -6.5 L 12.3 -6.5 Q 12.3 -3.3 14.7 -3.1 Z M 6.2 -37 L 6.2 -37 L 6.2 -37 Q 6.2 -39.2 8.1 -40.4 L 8.1 -40.4 L 8.1 -40.4 Q 9.9 -41.6 12.6 -41.6 L 12.6 -41.6 L 12.6 -41.6 Q 15.3 -41.6 16.9 -40.4 L 16.9 -40.4 L 16.9 -40.4 Q 18.5 -39.2 18.5 -37 L 18.5 -37 L 18.5 -37 Q 18.5 -34.8 16.7 -33.6 L 16.7 -33.6 L 16.7 -33.6 Q 14.9 -32.5 12.3 -32.5 L 12.3 -32.5 L 12.3 -32.5 Q 9.6 -32.5 7.9 -33.6 L 7.9 -33.6 L 7.9 -33.6 Q 6.2 -34.8 6.2 -37 Z M 60.5 1.1 L 60.5 1.1 L 60.5 1.1 Q 53.6 1.1 53.6 -4.2 L 53.6 -4.2 L 53.6 -4.2 Q 53.6 -6.6 54.6 -11.1 L 54.6 -11.1 L 54.6 -11.1 Q 55.6 -15.6 56 -17.4 L 56 -17.4 L 56 -17.4 Q 56.8 -21.6 56.8 -22.9 L 56.8 -22.9 L 56.8 -22.9 Q 56.8 -25.8 54.6 -25.8 L 54.6 -25.8 L 54.6 -25.8 Q 53.2 -25.8 51.8 -23.9 L 51.8 -23.9 L 51.8 -23.9 Q 50.5 -21.9 49.8 -18 L 49.8 -18 L 46.3 0 L 35.2 1.1 L 38.3 -14.4 L 38.3 -14.4 Q 38.8 -16.9 39.2 -19.8 L 39.2 -19.8 L 39.2 -19.8 Q 39.7 -22.7 39.7 -23.2 L 39.7 -23.2 L 39.7 -23.2 Q 39.7 -25.8 37.7 -25.8 L 37.7 -25.8 L 37.7 -25.8 Q 36.4 -25.8 35 -23.9 L 35 -23.9 L 35 -23.9 Q 33.6 -21.9 32.8 -18 L 32.8 -18 L 29.3 0 L 18.1 1.1 L 24.1 -29.1 L 33.3 -30.2 L 32.4 -24.4 L 32.4 -24.4 Q 33.9 -27.5 36.6 -28.9 L 36.6 -28.9 L 36.6 -28.9 Q 39.3 -30.2 43.6 -30.2 L 43.6 -30.2 L 43.6 -30.2 Q 46.1 -30.2 47.6 -29 L 47.6 -29 L 47.6 -29 Q 49.3 -27.8 49.8 -25.9 L 49.8 -25.9 L 49.8 -25.9 Q 50.7 -27.9 53.2 -29 L 53.2 -29 L 53.2 -29 Q 55.7 -30.2 58.7 -30.2 L 58.7 -30.2 L 58.7 -30.2 Q 61.8 -30.2 63.3 -29.6 L 63.3 -29.6 L 63.3 -29.6 Q 64.8 -28.9 65.7 -27.8 L 65.7 -27.8 L 65.7 -27.8 Q 67.3 -25.8 67.3 -22.2 L 67.3 -22.2 L 67.3 -22.2 Q 67.3 -18.6 65.7 -11.1 L 65.7 -11.1 L 65.7 -11.1 Q 64.9 -7.5 64.9 -6.1 L 64.9 -6.1 L 64.9 -6.1 Q 64.9 -4.8 65.7 -4 L 65.7 -4 L 65.7 -4 Q 66.5 -3.2 67.6 -3.1 L 67.6 -3.1 L 67.6 -3.1 Q 67 -1.1 65.1 0 L 65.1 0 L 65.1 0 Q 63.1 1.1 60.5 1.1 Z M 74.5 -1.7 L 74.5 -1.7 L 74.5 -1.7 Q 73.1 -3.2 72.5 -5.5 L 72.5 -5.5 L 72.5 -5.5 Q 71.9 -7.9 71.9 -11.7 L 71.9 -11.7 L 71.9 -11.7 Q 71.9 -15.5 73.3 -19 L 73.3 -19 L 73.3 -19 Q 74.6 -22.5 77 -25 L 77 -25 L 77 -25 Q 81.8 -30.2 90 -30.2 L 90 -30.2 L 90 -30.2 Q 92.8 -30.2 95 -29.2 L 95 -29.2 L 104.7 -30.2 L 100.5 -8 L 100.5 -8 Q 100.3 -7.3 100.3 -6 L 100.3 -6 L 100.3 -6 Q 100.3 -4.8 101.1 -4 L 101.1 -4 L 101.1 -4 Q 101.9 -3.2 103 -3.1 L 103 -3.1 L 103 -3.1 Q 102.4 -1.1 100.3 0 L 100.3 0 L 100.3 0 Q 98.3 1.1 95.9 1.1 L 95.9 1.1 L 95.9 1.1 Q 93.6 1.1 92 0.3 L 92 0.3 L 92 0.3 Q 90.5 -0.6 90 -2.1 L 90 -2.1 L 90 -2.1 Q 89.1 -0.7 87.2 0.2 L 87.2 0.2 L 87.2 0.2 Q 85.2 1.1 82.6 1.1 L 82.6 1.1 L 82.6 1.1 Q 80 1.1 77.9 0.5 L 77.9 0.5 L 77.9 0.5 Q 75.8 -0.2 74.5 -1.7 Z M 86.5 -24.9 L 86.5 -24.9 L 86.5 -24.9 Q 85.8 -23.8 85.3 -22.1 L 85.3 -22.1 L 85.3 -22.1 Q 84.7 -20.4 83.8 -15.7 L 83.8 -15.7 L 83.8 -15.7 Q 82.8 -11.1 82.8 -7.8 L 82.8 -7.8 L 82.8 -7.8 Q 82.8 -4.5 83.3 -3.5 L 83.3 -3.5 L 83.3 -3.5 Q 83.8 -2.5 84.8 -2.5 L 84.8 -2.5 L 84.8 -2.5 Q 86.6 -2.5 87.9 -4.3 L 87.9 -4.3 L 87.9 -4.3 Q 89.3 -6 89.8 -9.1 L 89.8 -9.1 L 92.8 -25.8 L 92.8 -25.8 Q 91.6 -26.8 90.2 -26.8 L 90.2 -26.8 L 90.2 -26.8 Q 88.8 -26.8 88 -26.3 L 88 -26.3 L 88 -26.3 Q 87.2 -25.9 86.5 -24.9 Z M 111.6 -23.8 L 111.6 -23.8 L 111.6 -23.8 Q 113.5 -26.6 116.5 -28.4 L 116.5 -28.4 L 116.5 -28.4 Q 119.4 -30.2 123 -30.2 L 123 -30.2 L 123 -30.2 Q 126.6 -30.2 128.3 -29.1 L 128.3 -29.1 L 139.5 -30.2 L 135.6 -8.3 L 135.6 -8.3 Q 133.6 2.9 129.4 7.2 L 129.4 7.2 L 129.4 7.2 Q 125.3 11.4 117.5 11.4 L 117.5 11.4 L 117.5 11.4 Q 111.5 11.4 108.1 9.5 L 108.1 9.5 L 108.1 9.5 Q 104.7 7.6 104.7 4.5 L 104.7 4.5 L 104.7 4.5 Q 104.7 2.2 106.4 0.8 L 106.4 0.8 L 106.4 0.8 Q 108.2 -0.5 110.9 -0.5 L 110.9 -0.5 L 110.9 -0.5 Q 113.3 -0.5 115.1 0.6 L 115.1 0.6 L 115.1 0.6 Q 116.2 1.1 116.7 1.9 L 116.7 1.9 L 116.7 1.9 Q 115.4 3.1 115.4 5 L 115.4 5 L 115.4 5 Q 115.4 7.4 117.7 7.4 L 117.7 7.4 L 117.7 7.4 Q 121.5 7.4 123.7 -1.6 L 123.7 -1.6 L 123.7 -1.6 Q 124.3 -4 124.8 -6.5 L 124.8 -6.5 L 124.8 -6.5 Q 122.3 -3.4 116.5 -3.4 L 116.5 -3.4 L 116.5 -3.4 Q 112.4 -3.4 110.1 -5.3 L 110.1 -5.3 L 110.1 -5.3 Q 107.7 -7.2 107.7 -11.8 L 107.7 -11.8 L 107.7 -11.8 Q 107.7 -14.7 108.7 -17.9 L 108.7 -17.9 L 108.7 -17.9 Q 109.7 -21.1 111.6 -23.8 Z M 119 -11.6 L 119 -11.6 L 119 -11.6 Q 119 -7.8 121 -7.8 L 121 -7.8 L 121 -7.8 Q 122.4 -7.8 123.7 -9.2 L 123.7 -9.2 L 123.7 -9.2 Q 124.7 -10.4 125.1 -12.2 L 125.1 -12.2 L 128 -26.9 L 128 -26.9 Q 127.7 -26.9 127.5 -27 L 127.5 -27 L 127.5 -27 Q 126.9 -27.3 126.1 -27.3 L 126.1 -27.3 L 126.1 -27.3 Q 122.7 -27.3 120.6 -21.6 L 120.6 -21.6 L 120.6 -21.6 Q 119 -17.1 119 -11.6 Z M 164.8 -9.6 L 164.8 -9.6 L 164.8 -9.6 Q 166.2 -8.7 166.2 -6.5 L 166.2 -6.5 L 166.2 -6.5 Q 166.2 -4.4 165.1 -3 L 165.1 -3 L 165.1 -3 Q 164.1 -1.6 162.3 -0.7 L 162.3 -0.7 L 162.3 -0.7 Q 158.6 1.1 154.7 1.1 L 154.7 1.1 L 154.7 1.1 Q 150.8 1.1 148.5 0.3 L 148.5 0.3 L 148.5 0.3 Q 146.2 -0.6 144.6 -2.2 L 144.6 -2.2 L 144.6 -2.2 Q 141.6 -5.2 141.6 -10.7 L 141.6 -10.7 L 141.6 -10.7 Q 141.6 -19.3 146.3 -24.6 L 146.3 -24.6 L 146.3 -24.6 Q 151.3 -30.2 160 -30.2 L 160 -30.2 L 160 -30.2 Q 165.4 -30.2 168.1 -27.9 L 168.1 -27.9 L 168.1 -27.9 Q 170.1 -26.2 170.1 -23.4 L 170.1 -23.4 L 170.1 -23.4 Q 170.1 -13.4 152.8 -13.4 L 152.8 -13.4 L 152.8 -13.4 Q 152.5 -11.9 152.5 -10.7 L 152.5 -10.7 L 152.5 -10.7 Q 152.5 -8 153.7 -7 L 153.7 -7 L 153.7 -7 Q 154.9 -6 157 -6 L 157 -6 L 157 -6 Q 159.2 -6 161.5 -7 L 161.5 -7 L 161.5 -7 Q 163.8 -8 164.8 -9.6 Z M 153.2 -15.8 L 153.2 -15.8 L 153.2 -15.8 Q 157.2 -15.8 159.5 -18.4 L 159.5 -18.4 L 159.5 -18.4 Q 161.9 -20.8 161.9 -24.6 L 161.9 -24.6 L 161.9 -24.6 Q 161.9 -25.9 161.4 -26.6 L 161.4 -26.6 L 161.4 -26.6 Q 160.9 -27.3 159.9 -27.3 L 159.9 -27.3 L 159.9 -27.3 Q 159 -27.3 158.2 -26.9 L 158.2 -26.9 L 158.2 -26.9 Q 157.3 -26.6 156.5 -25.3 L 156.5 -25.3 L 156.5 -25.3 Q 154.4 -22.5 153.2 -15.8 Z M 189.1 -20 L 189.1 -20 L 189.1 -20 Q 189.9 -22.1 189.9 -23.9 L 189.9 -23.9 L 189.9 -23.9 Q 189.9 -27.3 187.1 -27.3 L 187.1 -27.3 L 187.1 -27.3 Q 185.7 -27.3 184.5 -26 L 184.5 -26 L 184.5 -26 Q 183.4 -24.7 183.4 -23.1 L 183.4 -23.1 L 183.4 -23.1 Q 183.4 -22 184.3 -21.1 L 184.3 -21.1 L 184.3 -21.1 Q 185.6 -19.8 189 -17.8 L 189 -17.8 L 189 -17.8 Q 192.3 -15.7 193.6 -14.1 L 193.6 -14.1 L 193.6 -14.1 Q 194.9 -12.4 194.9 -10.1 L 194.9 -10.1 L 194.9 -10.1 Q 194.9 -7.8 193.8 -5.6 L 193.8 -5.6 L 193.8 -5.6 Q 192.7 -3.5 190.7 -2 L 190.7 -2 L 190.7 -2 Q 186.4 1.1 179.6 1.1 L 179.6 1.1 L 179.6 1.1 Q 175.8 1.1 173 -0.8 L 173 -0.8 L 173 -0.8 Q 170.2 -2.7 170.2 -4.9 L 170.2 -4.9 L 170.2 -4.9 Q 170.2 -7.1 171.8 -8.4 L 171.8 -8.4 L 171.8 -8.4 Q 173.4 -9.8 175.8 -9.8 L 175.8 -9.8 L 175.8 -9.8 Q 178.2 -9.8 179.7 -8.8 L 179.7 -8.8 L 179.7 -8.8 Q 178.9 -7 178.9 -5.7 L 178.9 -5.7 L 178.9 -5.7 Q 178.9 -1.9 182.1 -1.9 L 182.1 -1.9 L 182.1 -1.9 Q 183.5 -1.9 184.4 -2.8 L 184.4 -2.8 L 184.4 -2.8 Q 185.3 -3.6 185.3 -5.1 L 185.3 -5.1 L 185.3 -5.1 Q 185.3 -8 180.4 -11.1 L 180.4 -11.1 L 180.4 -11.1 Q 176.4 -13.7 175.5 -14.8 L 175.5 -14.8 L 175.5 -14.8 Q 174 -16.6 174 -18.9 L 174 -18.9 L 174 -18.9 Q 174 -21.1 175.1 -23.3 L 175.1 -23.3 L 175.1 -23.3 Q 176.1 -25.5 178.1 -27 L 178.1 -27 L 178.1 -27 Q 182.3 -30.2 189.5 -30.2 L 189.5 -30.2 L 189.5 -30.2 Q 193.2 -30.2 195.4 -28.7 L 195.4 -28.7 L 195.4 -28.7 Q 197.6 -27.3 197.6 -24.7 L 197.6 -24.7 L 197.6 -24.7 Q 197.6 -22.2 196.1 -20.8 L 196.1 -20.8 L 196.1 -20.8 Q 194.6 -19.4 191.9 -19.4 L 191.9 -19.4 L 191.9 -19.4 Q 190 -19.4 189.1 -20 Z M 215.5 -23.8 L 215.5 -23.8 L 215.5 -23.8 Q 217.5 -26.6 220.4 -28.4 L 220.4 -28.4 L 220.4 -28.4 Q 223.3 -30.2 226.9 -30.2 L 226.9 -30.2 L 226.9 -30.2 Q 230.5 -30.2 232.2 -29.1 L 232.2 -29.1 L 243.4 -30.2 L 239.5 -8.3 L 239.5 -8.3 Q 237.5 2.9 233.3 7.2 L 233.3 7.2 L 233.3 7.2 Q 229.3 11.4 221.4 11.4 L 221.4 11.4 L 221.4 11.4 Q 215.4 11.4 212 9.5 L 212 9.5 L 212 9.5 Q 208.6 7.6 208.6 4.5 L 208.6 4.5 L 208.6 4.5 Q 208.6 2.2 210.3 0.8 L 210.3 0.8 L 210.3 0.8 Q 212.1 -0.5 214.8 -0.5 L 214.8 -0.5 L 214.8 -0.5 Q 217.2 -0.5 219.1 0.6 L 219.1 0.6 L 219.1 0.6 Q 220.1 1.1 220.7 1.9 L 220.7 1.9 L 220.7 1.9 Q 219.3 3.1 219.3 5 L 219.3 5 L 219.3 5 Q 219.3 7.4 221.6 7.4 L 221.6 7.4 L 221.6 7.4 Q 225.4 7.4 227.6 -1.6 L 227.6 -1.6 L 227.6 -1.6 Q 228.2 -4 228.7 -6.5 L 228.7 -6.5 L 228.7 -6.5 Q 226.2 -3.4 220.4 -3.4 L 220.4 -3.4 L 220.4 -3.4 Q 216.3 -3.4 214 -5.3 L 214 -5.3 L 214 -5.3 Q 211.6 -7.2 211.6 -11.8 L 211.6 -11.8 L 211.6 -11.8 Q 211.6 -14.7 212.6 -17.9 L 212.6 -17.9 L 212.6 -17.9 Q 213.6 -21.1 215.5 -23.8 Z M 222.9 -11.6 L 222.9 -11.6 L 222.9 -11.6 Q 222.9 -7.8 224.9 -7.8 L 224.9 -7.8 L 224.9 -7.8 Q 226.3 -7.8 227.6 -9.2 L 227.6 -9.2 L 227.6 -9.2 Q 228.6 -10.4 229 -12.2 L 229 -12.2 L 231.9 -26.9 L 231.9 -26.9 Q 231.7 -26.9 231.4 -27 L 231.4 -27 L 231.4 -27 Q 230.8 -27.3 230.1 -27.3 L 230.1 -27.3 L 230.1 -27.3 Q 226.6 -27.3 224.5 -21.6 L 224.5 -21.6 L 224.5 -21.6 Q 222.9 -17.1 222.9 -11.6 Z M 248.1 -1.7 L 248.1 -1.7 L 248.1 -1.7 Q 246.8 -3.2 246.2 -5.5 L 246.2 -5.5 L 246.2 -5.5 Q 245.6 -7.9 245.6 -11.7 L 245.6 -11.7 L 245.6 -11.7 Q 245.6 -15.5 246.9 -19 L 246.9 -19 L 246.9 -19 Q 248.2 -22.5 250.6 -25 L 250.6 -25 L 250.6 -25 Q 255.5 -30.2 263.6 -30.2 L 263.6 -30.2 L 263.6 -30.2 Q 266.5 -30.2 268.6 -29.2 L 268.6 -29.2 L 278.3 -30.2 L 274.1 -8 L 274.1 -8 Q 273.9 -7.3 273.9 -6 L 273.9 -6 L 273.9 -6 Q 273.9 -4.8 274.7 -4 L 274.7 -4 L 274.7 -4 Q 275.5 -3.2 276.6 -3.1 L 276.6 -3.1 L 276.6 -3.1 Q 276.1 -1.1 274 0 L 274 0 L 274 0 Q 271.9 1.1 269.6 1.1 L 269.6 1.1 L 269.6 1.1 Q 267.2 1.1 265.6 0.3 L 265.6 0.3 L 265.6 0.3 Q 264.1 -0.6 263.6 -2.1 L 263.6 -2.1 L 263.6 -2.1 Q 262.7 -0.7 260.8 0.2 L 260.8 0.2 L 260.8 0.2 Q 258.8 1.1 256.2 1.1 L 256.2 1.1 L 256.2 1.1 Q 253.7 1.1 251.5 0.5 L 251.5 0.5 L 251.5 0.5 Q 249.4 -0.2 248.1 -1.7 Z M 260.1 -24.9 L 260.1 -24.9 L 260.1 -24.9 Q 259.5 -23.8 258.9 -22.1 L 258.9 -22.1 L 258.9 -22.1 Q 258.3 -20.4 257.4 -15.7 L 257.4 -15.7 L 257.4 -15.7 Q 256.4 -11.1 256.4 -7.8 L 256.4 -7.8 L 256.4 -7.8 Q 256.4 -4.5 257 -3.5 L 257 -3.5 L 257 -3.5 Q 257.5 -2.5 258.4 -2.5 L 258.4 -2.5 L 258.4 -2.5 Q 260.2 -2.5 261.5 -4.3 L 261.5 -4.3 L 261.5 -4.3 Q 262.9 -6 263.4 -9.1 L 263.4 -9.1 L 266.4 -25.8 L 266.4 -25.8 Q 265.2 -26.8 263.8 -26.8 L 263.8 -26.8 L 263.8 -26.8 Q 262.4 -26.8 261.6 -26.3 L 261.6 -26.3 L 261.6 -26.3 Q 260.8 -25.9 260.1 -24.9 Z M 295 -3.1 L 295 -3.1 L 295 -3.1 Q 293.3 1.1 287.6 1.1 L 287.6 1.1 L 287.6 1.1 Q 284.8 1.1 282.9 -0.8 L 282.9 -0.8 L 282.9 -0.8 Q 281.5 -2.5 281.5 -4.4 L 281.5 -4.4 L 281.5 -4.4 Q 281.5 -8.7 283.5 -18 L 283.5 -18 L 287.6 -39.9 L 299.2 -41 L 293.7 -12.2 L 293.7 -12.2 Q 292.7 -8 292.7 -6.5 L 292.7 -6.5 L 292.7 -6.5 Q 292.7 -3.3 295 -3.1 Z M 313.5 -3.1 L 313.5 -3.1 L 313.5 -3.1 Q 311.7 1.1 306.1 1.1 L 306.1 1.1 L 306.1 1.1 Q 303.2 1.1 301.4 -0.8 L 301.4 -0.8 L 301.4 -0.8 Q 299.9 -2.5 299.9 -4.4 L 299.9 -4.4 L 299.9 -4.4 Q 299.9 -8.7 301.9 -18 L 301.9 -18 L 306.1 -39.9 L 317.7 -41 L 312.1 -12.2 L 312.1 -12.2 Q 311.2 -8 311.2 -6.5 L 311.2 -6.5 L 311.2 -6.5 Q 311.2 -3.3 313.5 -3.1 Z M 341.4 -9.6 L 341.4 -9.6 L 341.4 -9.6 Q 342.9 -8.7 342.9 -6.5 L 342.9 -6.5 L 342.9 -6.5 Q 342.9 -4.4 341.8 -3 L 341.8 -3 L 341.8 -3 Q 340.7 -1.6 338.9 -0.7 L 338.9 -0.7 L 338.9 -0.7 Q 335.3 1.1 331.3 1.1 L 331.3 1.1 L 331.3 1.1 Q 327.4 1.1 325.1 0.3 L 325.1 0.3 L 325.1 0.3 Q 322.8 -0.6 321.3 -2.2 L 321.3 -2.2 L 321.3 -2.2 Q 318.2 -5.2 318.2 -10.7 L 318.2 -10.7 L 318.2 -10.7 Q 318.2 -19.3 322.9 -24.6 L 322.9 -24.6 L 322.9 -24.6 Q 327.9 -30.2 336.6 -30.2 L 336.6 -30.2 L 336.6 -30.2 Q 342.1 -30.2 344.7 -27.9 L 344.7 -27.9 L 344.7 -27.9 Q 346.7 -26.2 346.7 -23.4 L 346.7 -23.4 L 346.7 -23.4 Q 346.7 -13.4 329.4 -13.4 L 329.4 -13.4 L 329.4 -13.4 Q 329.2 -11.9 329.2 -10.7 L 329.2 -10.7 L 329.2 -10.7 Q 329.2 -8 330.3 -7 L 330.3 -7 L 330.3 -7 Q 331.5 -6 333.7 -6 L 333.7 -6 L 333.7 -6 Q 335.8 -6 338.1 -7 L 338.1 -7 L 338.1 -7 Q 340.5 -8 341.4 -9.6 Z M 329.8 -15.8 L 329.8 -15.8 L 329.8 -15.8 Q 333.9 -15.8 336.2 -18.4 L 336.2 -18.4 L 336.2 -18.4 Q 338.5 -20.8 338.5 -24.6 L 338.5 -24.6 L 338.5 -24.6 Q 338.5 -25.9 338 -26.6 L 338 -26.6 L 338 -26.6 Q 337.6 -27.3 336.6 -27.3 L 336.6 -27.3 L 336.6 -27.3 Q 335.6 -27.3 334.8 -26.9 L 334.8 -26.9 L 334.8 -26.9 Q 334 -26.6 333.1 -25.3 L 333.1 -25.3 L 333.1 -25.3 Q 331 -22.5 329.8 -15.8 Z M 366.5 -16 L 366.5 -16 L 366.5 -16 Q 368.6 -19.7 368.6 -23.4 L 368.6 -23.4 L 368.6 -23.4 Q 368.6 -25.8 366.8 -25.8 L 366.8 -25.8 L 366.8 -25.8 Q 365.4 -25.8 364 -23.5 L 364 -23.5 L 364 -23.5 Q 362.5 -21.1 362.1 -18.1 L 362.1 -18.1 L 359.1 0 L 347.3 1.1 L 353.1 -29.1 L 362.5 -30.2 L 361.5 -24.4 L 361.5 -24.4 Q 364.3 -30.2 370.6 -30.2 L 370.6 -30.2 L 370.6 -30.2 Q 373.9 -30.2 375.7 -28.5 L 375.7 -28.5 L 375.7 -28.5 Q 377.4 -26.8 377.4 -23.3 L 377.4 -23.3 L 377.4 -23.3 Q 377.4 -19.8 375.1 -17.6 L 375.1 -17.6 L 375.1 -17.6 Q 372.8 -15.3 368.9 -15.3 L 368.9 -15.3 L 368.9 -15.3 Q 367.2 -15.3 366.5 -16 Z M 396.5 -6.4 L 396.5 -6.4 L 396.5 -6.4 Q 393.5 -3.4 388.1 -3.4 L 388.1 -3.4 L 388.1 -3.4 Q 381.3 -3.4 379.9 -8.3 L 379.9 -8.3 L 379.9 -8.3 Q 379.4 -9.8 379.4 -11.5 L 379.4 -11.5 L 379.4 -11.5 Q 379.4 -13.1 379.8 -14.8 L 379.8 -14.8 L 382.5 -29.1 L 394 -30.2 L 390.9 -13.6 L 390.9 -13.6 Q 390.8 -12.9 390.6 -12.1 L 390.6 -12.1 L 390.6 -12.1 Q 390.4 -11.3 390.4 -10.5 L 390.4 -10.5 L 390.4 -10.5 Q 390.4 -9.6 390.7 -9.1 L 390.7 -9.1 L 390.7 -9.1 Q 391 -8.6 391.4 -8.2 L 391.4 -8.2 L 391.4 -8.2 Q 392.1 -7.8 393.3 -7.8 L 393.3 -7.8 L 393.3 -7.8 Q 394.6 -7.8 395.6 -9.2 L 395.6 -9.2 L 395.6 -9.2 Q 396.7 -10.7 397.2 -13.3 L 397.2 -13.3 L 400.3 -29.1 L 411.5 -30.2 L 407.3 -7.8 L 407.3 -7.8 Q 405.2 3.1 400.8 7.5 L 400.8 7.5 L 400.8 7.5 Q 398.6 9.7 395.7 10.6 L 395.7 10.6 L 395.7 10.6 Q 392.8 11.5 389.1 11.5 L 389.1 11.5 L 389.1 11.5 Q 383.1 11.5 379.7 9.6 L 379.7 9.6 L 379.7 9.6 Q 376.3 7.7 376.3 4.6 L 376.3 4.6 L 376.3 4.6 Q 376.3 2.2 378.1 0.9 L 378.1 0.9 L 378.1 0.9 Q 379.9 -0.5 382.6 -0.5 L 382.6 -0.5 L 382.6 -0.5 Q 385 -0.5 386.8 0.6 L 386.8 0.6 L 386.8 0.6 Q 387.9 1.2 388.4 2 L 388.4 2 L 388.4 2 Q 387.1 3.1 387.1 5 L 387.1 5 L 387.1 5 Q 387.1 7.5 389.4 7.5 L 389.4 7.5 L 389.4 7.5 Q 393.1 7.5 395.3 -1.1 L 395.3 -1.1 L 395.3 -1.1 Q 395.9 -3.7 396.5 -6.4 Z" fill="url(#editing-shiny-gradient)"></path></g></g><g transform="rotate(0,250,85.9)" filter="url(#editing-shiny2)"><g transform="matrix(1,0,0,1,43.7,82.6)"><path d="M 14.7 16.2 L 14.7 16.2 L 14.7 16.2 Q 12.9 20.5 7.3 20.5 L 7.3 20.5 L 7.3 20.5 Q 4.4 20.5 2.6 18.5 L 2.6 18.5 L 2.6 18.5 Q 1 16.7 1 15 L 1 15 L 1 15 Q 1 10.3 3.1 1.3 L 3.1 1.3 L 5.3 -9.7 L 16.8 -10.9 L 13.3 7.1 L 13.3 7.1 Q 12.4 11.4 12.4 12.8 L 12.4 12.8 L 12.4 12.8 Q 12.4 16.1 14.7 16.2 Z M 6.3 -17.6 L 6.3 -17.6 L 6.3 -17.6 Q 6.3 -19.9 8.1 -21.1 L 8.1 -21.1 L 8.1 -21.1 Q 10 -22.3 12.7 -22.3 L 12.7 -22.3 L 12.7 -22.3 Q 15.3 -22.3 17 -21.1 L 17 -21.1 L 17 -21.1 Q 18.6 -19.9 18.6 -17.6 L 18.6 -17.6 L 18.6 -17.6 Q 18.6 -15.4 16.8 -14.3 L 16.8 -14.3 L 16.8 -14.3 Q 15 -13.1 12.3 -13.1 L 12.3 -13.1 L 12.3 -13.1 Q 9.6 -13.1 8 -14.3 L 8 -14.3 L 8 -14.3 Q 6.3 -15.4 6.3 -17.6 Z M 60.6 20.5 L 60.6 20.5 L 60.6 20.5 Q 53.7 20.5 53.7 15.1 L 53.7 15.1 L 53.7 15.1 Q 53.7 12.8 54.7 8.3 L 54.7 8.3 L 54.7 8.3 Q 55.7 3.7 56 1.9 L 56 1.9 L 56 1.9 Q 56.8 -2.3 56.8 -3.6 L 56.8 -3.6 L 56.8 -3.6 Q 56.8 -6.5 54.7 -6.5 L 54.7 -6.5 L 54.7 -6.5 Q 53.2 -6.5 51.9 -4.5 L 51.9 -4.5 L 51.9 -4.5 Q 50.5 -2.5 49.9 1.4 L 49.9 1.4 L 46.3 19.3 L 35.2 20.5 L 38.3 5 L 38.3 5 Q 38.8 2.4 39.3 -0.5 L 39.3 -0.5 L 39.3 -0.5 Q 39.7 -3.4 39.7 -3.9 L 39.7 -3.9 L 39.7 -3.9 Q 39.7 -6.5 37.8 -6.5 L 37.8 -6.5 L 37.8 -6.5 Q 36.5 -6.5 35.1 -4.5 L 35.1 -4.5 L 35.1 -4.5 Q 33.6 -2.6 32.8 1.4 L 32.8 1.4 L 29.4 19.3 L 18.1 20.5 L 24.1 -9.7 L 33.4 -10.9 L 32.4 -5.1 L 32.4 -5.1 Q 33.9 -8.2 36.7 -9.5 L 36.7 -9.5 L 36.7 -9.5 Q 39.4 -10.9 43.7 -10.9 L 43.7 -10.9 L 43.7 -10.9 Q 46.1 -10.9 47.7 -9.7 L 47.7 -9.7 L 47.7 -9.7 Q 49.3 -8.5 49.8 -6.5 L 49.8 -6.5 L 49.8 -6.5 Q 50.8 -8.5 53.3 -9.7 L 53.3 -9.7 L 53.3 -9.7 Q 55.8 -10.9 58.8 -10.9 L 58.8 -10.9 L 58.8 -10.9 Q 61.9 -10.9 63.4 -10.2 L 63.4 -10.2 L 63.4 -10.2 Q 64.9 -9.6 65.8 -8.5 L 65.8 -8.5 L 65.8 -8.5 Q 67.3 -6.5 67.3 -2.8 L 67.3 -2.8 L 67.3 -2.8 Q 67.3 0.8 65.8 8.2 L 65.8 8.2 L 65.8 8.2 Q 65 11.9 65 13.2 L 65 13.2 L 65 13.2 Q 65 14.6 65.8 15.4 L 65.8 15.4 L 65.8 15.4 Q 66.5 16.2 67.7 16.3 L 67.7 16.3 L 67.7 16.3 Q 67.1 18.2 65.1 19.3 L 65.1 19.3 L 65.1 19.3 Q 63.2 20.5 60.6 20.5 Z M 74.5 17.6 L 74.5 17.6 L 74.5 17.6 Q 73.2 16.2 72.6 13.8 L 72.6 13.8 L 72.6 13.8 Q 72 11.5 72 7.7 L 72 7.7 L 72 7.7 Q 72 3.8 73.3 0.4 L 73.3 0.4 L 73.3 0.4 Q 74.6 -3.1 77 -5.6 L 77 -5.6 L 77 -5.6 Q 81.9 -10.9 90 -10.9 L 90 -10.9 L 90 -10.9 Q 92.9 -10.9 95 -9.9 L 95 -9.9 L 104.8 -10.9 L 100.6 11.4 L 100.6 11.4 Q 100.4 12 100.4 13.3 L 100.4 13.3 L 100.4 13.3 Q 100.4 14.6 101.2 15.4 L 101.2 15.4 L 101.2 15.4 Q 101.9 16.2 103.1 16.3 L 103.1 16.3 L 103.1 16.3 Q 102.5 18.2 100.4 19.3 L 100.4 19.3 L 100.4 19.3 Q 98.3 20.5 96 20.5 L 96 20.5 L 96 20.5 Q 93.7 20.5 92.1 19.6 L 92.1 19.6 L 92.1 19.6 Q 90.5 18.7 90.1 17.2 L 90.1 17.2 L 90.1 17.2 Q 89.2 18.7 87.2 19.6 L 87.2 19.6 L 87.2 19.6 Q 85.3 20.5 82.7 20.5 L 82.7 20.5 L 82.7 20.5 Q 80.1 20.5 78 19.8 L 78 19.8 L 78 19.8 Q 75.9 19.1 74.5 17.6 Z M 86.6 -5.5 L 86.6 -5.5 L 86.6 -5.5 Q 85.9 -4.5 85.3 -2.7 L 85.3 -2.7 L 85.3 -2.7 Q 84.8 -1 83.8 3.6 L 83.8 3.6 L 83.8 3.6 Q 82.9 8.3 82.9 11.6 L 82.9 11.6 L 82.9 11.6 Q 82.9 14.9 83.4 15.9 L 83.4 15.9 L 83.4 15.9 Q 83.9 16.8 84.8 16.8 L 84.8 16.8 L 84.8 16.8 Q 86.6 16.8 88 15.1 L 88 15.1 L 88 15.1 Q 89.3 13.4 89.8 10.3 L 89.8 10.3 L 92.9 -6.4 L 92.9 -6.4 Q 91.7 -7.4 90.3 -7.4 L 90.3 -7.4 L 90.3 -7.4 Q 88.9 -7.4 88 -7 L 88 -7 L 88 -7 Q 87.2 -6.5 86.6 -5.5 Z M 111.7 -4.5 L 111.7 -4.5 L 111.7 -4.5 Q 113.6 -7.2 116.5 -9 L 116.5 -9 L 116.5 -9 Q 119.5 -10.9 123.1 -10.9 L 123.1 -10.9 L 123.1 -10.9 Q 126.7 -10.9 128.4 -9.7 L 128.4 -9.7 L 139.5 -10.9 L 135.7 11 L 135.7 11 Q 133.7 22.2 129.5 26.6 L 129.5 26.6 L 129.5 26.6 Q 125.4 30.7 117.5 30.7 L 117.5 30.7 L 117.5 30.7 Q 111.6 30.7 108.1 28.9 L 108.1 28.9 L 108.1 28.9 Q 104.7 27 104.7 23.8 L 104.7 23.8 L 104.7 23.8 Q 104.7 21.5 106.5 20.2 L 106.5 20.2 L 106.5 20.2 Q 108.3 18.8 111 18.8 L 111 18.8 L 111 18.8 Q 113.4 18.8 115.2 19.9 L 115.2 19.9 L 115.2 19.9 Q 116.3 20.5 116.8 21.3 L 116.8 21.3 L 116.8 21.3 Q 115.5 22.4 115.5 24.3 L 115.5 24.3 L 115.5 24.3 Q 115.5 26.8 117.8 26.8 L 117.8 26.8 L 117.8 26.8 Q 121.6 26.8 123.8 17.7 L 123.8 17.7 L 123.8 17.7 Q 124.4 15.3 124.9 12.8 L 124.9 12.8 L 124.9 12.8 Q 122.3 16 116.5 16 L 116.5 16 L 116.5 16 Q 112.5 16 110.1 14 L 110.1 14 L 110.1 14 Q 107.8 12.1 107.8 7.5 L 107.8 7.5 L 107.8 7.5 Q 107.8 4.7 108.8 1.5 L 108.8 1.5 L 108.8 1.5 Q 109.7 -1.7 111.7 -4.5 Z M 119.1 7.7 L 119.1 7.7 L 119.1 7.7 Q 119.1 11.6 121.1 11.6 L 121.1 11.6 L 121.1 11.6 Q 122.4 11.6 123.8 10.1 L 123.8 10.1 L 123.8 10.1 Q 124.8 8.9 125.2 7.1 L 125.2 7.1 L 128.1 -7.5 L 128.1 -7.5 Q 127.8 -7.6 127.5 -7.7 L 127.5 -7.7 L 127.5 -7.7 Q 126.9 -7.9 126.2 -7.9 L 126.2 -7.9 L 126.2 -7.9 Q 122.7 -7.9 120.7 -2.2 L 120.7 -2.2 L 120.7 -2.2 Q 119.1 2.2 119.1 7.7 Z M 164.9 9.7 L 164.9 9.7 L 164.9 9.7 Q 166.3 10.7 166.3 12.8 L 166.3 12.8 L 166.3 12.8 Q 166.3 15 165.2 16.3 L 165.2 16.3 L 165.2 16.3 Q 164.1 17.7 162.3 18.6 L 162.3 18.6 L 162.3 18.6 Q 158.7 20.5 154.8 20.5 L 154.8 20.5 L 154.8 20.5 Q 150.8 20.5 148.5 19.6 L 148.5 19.6 L 148.5 19.6 Q 146.2 18.8 144.7 17.2 L 144.7 17.2 L 144.7 17.2 Q 141.7 14.2 141.7 8.6 L 141.7 8.6 L 141.7 8.6 Q 141.7 0 146.3 -5.2 L 146.3 -5.2 L 146.3 -5.2 Q 151.3 -10.9 160.1 -10.9 L 160.1 -10.9 L 160.1 -10.9 Q 165.5 -10.9 168.2 -8.6 L 168.2 -8.6 L 168.2 -8.6 Q 170.2 -6.9 170.2 -4.1 L 170.2 -4.1 L 170.2 -4.1 Q 170.2 5.9 152.8 5.9 L 152.8 5.9 L 152.8 5.9 Q 152.6 7.4 152.6 8.7 L 152.6 8.7 L 152.6 8.7 Q 152.6 11.3 153.8 12.3 L 153.8 12.3 L 153.8 12.3 Q 154.9 13.3 157.1 13.3 L 157.1 13.3 L 157.1 13.3 Q 159.3 13.3 161.6 12.3 L 161.6 12.3 L 161.6 12.3 Q 163.9 11.3 164.9 9.7 Z M 153.2 3.5 L 153.2 3.5 L 153.2 3.5 Q 157.3 3.5 159.6 1 L 159.6 1 L 159.6 1 Q 161.9 -1.4 161.9 -5.2 L 161.9 -5.2 L 161.9 -5.2 Q 161.9 -6.5 161.5 -7.2 L 161.5 -7.2 L 161.5 -7.2 Q 161 -8 160 -8 L 160 -8 L 160 -8 Q 159 -8 158.2 -7.6 L 158.2 -7.6 L 158.2 -7.6 Q 157.4 -7.2 156.5 -6 L 156.5 -6 L 156.5 -6 Q 154.4 -3.1 153.2 3.5 Z M 189.1 -0.7 L 189.1 -0.7 L 189.1 -0.7 Q 189.9 -2.8 189.9 -4.6 L 189.9 -4.6 L 189.9 -4.6 Q 189.9 -8 187.2 -8 L 187.2 -8 L 187.2 -8 Q 185.8 -8 184.6 -6.7 L 184.6 -6.7 L 184.6 -6.7 Q 183.4 -5.4 183.4 -3.8 L 183.4 -3.8 L 183.4 -3.8 Q 183.4 -2.7 184.3 -1.7 L 184.3 -1.7 L 184.3 -1.7 Q 185.7 -0.5 189 1.6 L 189 1.6 L 189 1.6 Q 192.4 3.6 193.7 5.3 L 193.7 5.3 L 193.7 5.3 Q 194.9 7 194.9 9.3 L 194.9 9.3 L 194.9 9.3 Q 194.9 11.6 193.8 13.7 L 193.8 13.7 L 193.8 13.7 Q 192.7 15.8 190.7 17.3 L 190.7 17.3 L 190.7 17.3 Q 186.5 20.5 179.6 20.5 L 179.6 20.5 L 179.6 20.5 Q 175.9 20.5 173.1 18.5 L 173.1 18.5 L 173.1 18.5 Q 170.2 16.7 170.2 14.4 L 170.2 14.4 L 170.2 14.4 Q 170.2 12.2 171.8 10.9 L 171.8 10.9 L 171.8 10.9 Q 173.5 9.6 175.9 9.6 L 175.9 9.6 L 175.9 9.6 Q 178.2 9.6 179.7 10.5 L 179.7 10.5 L 179.7 10.5 Q 179 12.4 179 13.6 L 179 13.6 L 179 13.6 Q 179 17.4 182.2 17.4 L 182.2 17.4 L 182.2 17.4 Q 183.5 17.4 184.5 16.6 L 184.5 16.6 L 184.5 16.6 Q 185.4 15.7 185.4 14.2 L 185.4 14.2 L 185.4 14.2 Q 185.4 11.3 180.5 8.2 L 180.5 8.2 L 180.5 8.2 Q 176.5 5.6 175.6 4.6 L 175.6 4.6 L 175.6 4.6 Q 174 2.8 174 0.5 L 174 0.5 L 174 0.5 Q 174 -1.8 175.1 -4 L 175.1 -4 L 175.1 -4 Q 176.2 -6.1 178.2 -7.7 L 178.2 -7.7 L 178.2 -7.7 Q 182.4 -10.9 189.6 -10.9 L 189.6 -10.9 L 189.6 -10.9 Q 193.3 -10.9 195.5 -9.4 L 195.5 -9.4 L 195.5 -9.4 Q 197.7 -7.9 197.7 -5.4 L 197.7 -5.4 L 197.7 -5.4 Q 197.7 -2.9 196.2 -1.5 L 196.2 -1.5 L 196.2 -1.5 Q 194.7 0 191.9 0 L 191.9 0 L 191.9 0 Q 190 0 189.1 -0.7 Z M 215.6 -4.5 L 215.6 -4.5 L 215.6 -4.5 Q 217.5 -7.2 220.5 -9 L 220.5 -9 L 220.5 -9 Q 223.4 -10.9 227 -10.9 L 227 -10.9 L 227 -10.9 Q 230.6 -10.9 232.3 -9.7 L 232.3 -9.7 L 243.5 -10.9 L 239.6 11 L 239.6 11 Q 237.6 22.2 233.4 26.6 L 233.4 26.6 L 233.4 26.6 Q 229.3 30.7 221.5 30.7 L 221.5 30.7 L 221.5 30.7 Q 215.5 30.7 212 28.9 L 212 28.9 L 212 28.9 Q 208.6 27 208.6 23.8 L 208.6 23.8 L 208.6 23.8 Q 208.6 21.5 210.4 20.2 L 210.4 20.2 L 210.4 20.2 Q 212.2 18.8 214.9 18.8 L 214.9 18.8 L 214.9 18.8 Q 217.3 18.8 219.1 19.9 L 219.1 19.9 L 219.1 19.9 Q 220.2 20.5 220.7 21.3 L 220.7 21.3 L 220.7 21.3 Q 219.4 22.4 219.4 24.3 L 219.4 24.3 L 219.4 24.3 Q 219.4 26.8 221.7 26.8 L 221.7 26.8 L 221.7 26.8 Q 225.5 26.8 227.7 17.7 L 227.7 17.7 L 227.7 17.7 Q 228.3 15.3 228.8 12.8 L 228.8 12.8 L 228.8 12.8 Q 226.2 16 220.4 16 L 220.4 16 L 220.4 16 Q 216.4 16 214 14 L 214 14 L 214 14 Q 211.7 12.1 211.7 7.5 L 211.7 7.5 L 211.7 7.5 Q 211.7 4.7 212.7 1.5 L 212.7 1.5 L 212.7 1.5 Q 213.6 -1.7 215.6 -4.5 Z M 223 7.7 L 223 7.7 L 223 7.7 Q 223 11.6 225 11.6 L 225 11.6 L 225 11.6 Q 226.4 11.6 227.7 10.1 L 227.7 10.1 L 227.7 10.1 Q 228.7 8.9 229.1 7.1 L 229.1 7.1 L 232 -7.5 L 232 -7.5 Q 231.7 -7.6 231.4 -7.7 L 231.4 -7.7 L 231.4 -7.7 Q 230.9 -7.9 230.1 -7.9 L 230.1 -7.9 L 230.1 -7.9 Q 226.6 -7.9 224.6 -2.2 L 224.6 -2.2 L 224.6 -2.2 Q 223 2.2 223 7.7 Z M 248.2 17.6 L 248.2 17.6 L 248.2 17.6 Q 246.8 16.2 246.2 13.8 L 246.2 13.8 L 246.2 13.8 Q 245.6 11.5 245.6 7.7 L 245.6 7.7 L 245.6 7.7 Q 245.6 3.8 246.9 0.4 L 246.9 0.4 L 246.9 0.4 Q 248.2 -3.1 250.6 -5.6 L 250.6 -5.6 L 250.6 -5.6 Q 255.5 -10.9 263.6 -10.9 L 263.6 -10.9 L 263.6 -10.9 Q 266.5 -10.9 268.6 -9.9 L 268.6 -9.9 L 278.4 -10.9 L 274.2 11.4 L 274.2 11.4 Q 274 12 274 13.3 L 274 13.3 L 274 13.3 Q 274 14.6 274.8 15.4 L 274.8 15.4 L 274.8 15.4 Q 275.5 16.2 276.7 16.3 L 276.7 16.3 L 276.7 16.3 Q 276.1 18.2 274 19.3 L 274 19.3 L 274 19.3 Q 272 20.5 269.6 20.5 L 269.6 20.5 L 269.6 20.5 Q 267.3 20.5 265.7 19.6 L 265.7 19.6 L 265.7 19.6 Q 264.1 18.7 263.7 17.2 L 263.7 17.2 L 263.7 17.2 Q 262.8 18.7 260.8 19.6 L 260.8 19.6 L 260.8 19.6 Q 258.9 20.5 256.3 20.5 L 256.3 20.5 L 256.3 20.5 Q 253.7 20.5 251.6 19.8 L 251.6 19.8 L 251.6 19.8 Q 249.5 19.1 248.2 17.6 Z M 260.2 -5.5 L 260.2 -5.5 L 260.2 -5.5 Q 259.5 -4.5 259 -2.7 L 259 -2.7 L 259 -2.7 Q 258.4 -1 257.4 3.6 L 257.4 3.6 L 257.4 3.6 Q 256.5 8.3 256.5 11.6 L 256.5 11.6 L 256.5 11.6 Q 256.5 14.9 257 15.9 L 257 15.9 L 257 15.9 Q 257.5 16.8 258.4 16.8 L 258.4 16.8 L 258.4 16.8 Q 260.3 16.8 261.6 15.1 L 261.6 15.1 L 261.6 15.1 Q 262.9 13.4 263.5 10.3 L 263.5 10.3 L 266.5 -6.4 L 266.5 -6.4 Q 265.3 -7.4 263.9 -7.4 L 263.9 -7.4 L 263.9 -7.4 Q 262.5 -7.4 261.7 -7 L 261.7 -7 L 261.7 -7 Q 260.8 -6.5 260.2 -5.5 Z M 295.1 16.2 L 295.1 16.2 L 295.1 16.2 Q 293.3 20.5 287.7 20.5 L 287.7 20.5 L 287.7 20.5 Q 284.8 20.5 283 18.5 L 283 18.5 L 283 18.5 Q 281.5 16.8 281.5 15 L 281.5 15 L 281.5 15 Q 281.5 10.7 283.5 1.3 L 283.5 1.3 L 287.7 -20.6 L 299.3 -21.7 L 293.7 7.1 L 293.7 7.1 Q 292.8 11.4 292.8 12.8 L 292.8 12.8 L 292.8 12.8 Q 292.8 16.1 295.1 16.2 Z M 313.6 16.2 L 313.6 16.2 L 313.6 16.2 Q 311.8 20.5 306.2 20.5 L 306.2 20.5 L 306.2 20.5 Q 303.3 20.5 301.5 18.5 L 301.5 18.5 L 301.5 18.5 Q 300 16.8 300 15 L 300 15 L 300 15 Q 300 10.7 302 1.3 L 302 1.3 L 306.2 -20.6 L 317.7 -21.7 L 312.2 7.1 L 312.2 7.1 Q 311.2 11.4 311.2 12.8 L 311.2 12.8 L 311.2 12.8 Q 311.2 16.1 313.6 16.2 Z M 341.5 9.7 L 341.5 9.7 L 341.5 9.7 Q 342.9 10.7 342.9 12.8 L 342.9 12.8 L 342.9 12.8 Q 342.9 15 341.8 16.3 L 341.8 16.3 L 341.8 16.3 Q 340.8 17.7 339 18.6 L 339 18.6 L 339 18.6 Q 335.3 20.5 331.4 20.5 L 331.4 20.5 L 331.4 20.5 Q 327.5 20.5 325.2 19.6 L 325.2 19.6 L 325.2 19.6 Q 322.9 18.8 321.3 17.2 L 321.3 17.2 L 321.3 17.2 Q 318.3 14.2 318.3 8.6 L 318.3 8.6 L 318.3 8.6 Q 318.3 0 323 -5.2 L 323 -5.2 L 323 -5.2 Q 328 -10.9 336.7 -10.9 L 336.7 -10.9 L 336.7 -10.9 Q 342.1 -10.9 344.8 -8.6 L 344.8 -8.6 L 344.8 -8.6 Q 346.8 -6.9 346.8 -4.1 L 346.8 -4.1 L 346.8 -4.1 Q 346.8 5.9 329.5 5.9 L 329.5 5.9 L 329.5 5.9 Q 329.2 7.4 329.2 8.7 L 329.2 8.7 L 329.2 8.7 Q 329.2 11.3 330.4 12.3 L 330.4 12.3 L 330.4 12.3 Q 331.6 13.3 333.7 13.3 L 333.7 13.3 L 333.7 13.3 Q 335.9 13.3 338.2 12.3 L 338.2 12.3 L 338.2 12.3 Q 340.5 11.3 341.5 9.7 Z M 329.9 3.5 L 329.9 3.5 L 329.9 3.5 Q 333.9 3.5 336.3 1 L 336.3 1 L 336.3 1 Q 338.6 -1.4 338.6 -5.2 L 338.6 -5.2 L 338.6 -5.2 Q 338.6 -6.5 338.1 -7.2 L 338.1 -7.2 L 338.1 -7.2 Q 337.6 -8 336.7 -8 L 336.7 -8 L 336.7 -8 Q 335.7 -8 334.9 -7.6 L 334.9 -7.6 L 334.9 -7.6 Q 334 -7.2 333.2 -6 L 333.2 -6 L 333.2 -6 Q 331.1 -3.1 329.9 3.5 Z M 366.6 3.3 L 366.6 3.3 L 366.6 3.3 Q 368.6 -0.3 368.6 -4 L 368.6 -4 L 368.6 -4 Q 368.6 -6.5 366.9 -6.5 L 366.9 -6.5 L 366.9 -6.5 Q 365.5 -6.5 364.1 -4.1 L 364.1 -4.1 L 364.1 -4.1 Q 362.6 -1.8 362.1 1.2 L 362.1 1.2 L 359.2 19.3 L 347.4 20.5 L 353.2 -9.7 L 362.6 -10.9 L 361.6 -5.1 L 361.6 -5.1 Q 364.4 -10.9 370.6 -10.9 L 370.6 -10.9 L 370.6 -10.9 Q 373.9 -10.9 375.7 -9.2 L 375.7 -9.2 L 375.7 -9.2 Q 377.5 -7.4 377.5 -3.9 L 377.5 -3.9 L 377.5 -3.9 Q 377.5 -0.4 375.2 1.8 L 375.2 1.8 L 375.2 1.8 Q 372.9 4 369 4 L 369 4 L 369 4 Q 367.3 4 366.6 3.3 Z M 396.6 12.9 L 396.6 12.9 L 396.6 12.9 Q 393.6 16 388.2 16 L 388.2 16 L 388.2 16 Q 381.4 16 380 11 L 380 11 L 380 11 Q 379.5 9.5 379.5 7.9 L 379.5 7.9 L 379.5 7.9 Q 379.5 6.2 379.9 4.5 L 379.9 4.5 L 382.5 -9.7 L 394.1 -10.9 L 391 5.7 L 391 5.7 Q 390.9 6.5 390.7 7.3 L 390.7 7.3 L 390.7 7.3 Q 390.5 8.1 390.5 8.9 L 390.5 8.9 L 390.5 8.9 Q 390.5 9.7 390.8 10.3 L 390.8 10.3 L 390.8 10.3 Q 391.1 10.8 391.5 11.1 L 391.5 11.1 L 391.5 11.1 Q 392.2 11.6 393.4 11.6 L 393.4 11.6 L 393.4 11.6 Q 394.6 11.6 395.7 10.1 L 395.7 10.1 L 395.7 10.1 Q 396.7 8.6 397.2 6.1 L 397.2 6.1 L 400.4 -9.7 L 411.6 -10.9 L 407.3 11.5 L 407.3 11.5 Q 405.2 22.5 400.9 26.8 L 400.9 26.8 L 400.9 26.8 Q 398.7 29 395.8 29.9 L 395.8 29.9 L 395.8 29.9 Q 392.9 30.8 389.2 30.8 L 389.2 30.8 L 389.2 30.8 Q 383.2 30.8 379.8 28.9 L 379.8 28.9 L 379.8 28.9 Q 376.4 27 376.4 23.9 L 376.4 23.9 L 376.4 23.9 Q 376.4 21.6 378.1 20.2 L 378.1 20.2 L 378.1 20.2 Q 379.9 18.9 382.6 18.9 L 382.6 18.9 L 382.6 18.9 Q 385 18.9 386.9 19.9 L 386.9 19.9 L 386.9 19.9 Q 388 20.5 388.5 21.3 L 388.5 21.3 L 388.5 21.3 Q 387.2 22.5 387.2 24.4 L 387.2 24.4 L 387.2 24.4 Q 387.2 26.9 389.4 26.9 L 389.4 26.9 L 389.4 26.9 Q 393.2 26.9 395.4 18.2 L 395.4 18.2 L 395.4 18.2 Q 396 15.6 396.6 12.9 Z" fill="url(#editing-shiny-gradient2)"></path></g></g><style>text {
  font-size: 64px;
  font-family: Arial Black;
  dominant-baseline: central;
  text-anchor: middle;
}</style></svg>